<svg id="Capa_1" enable-background="new 0 0 512 512" height="512" viewBox="0 0 512 512" width="512" xmlns="http://www.w3.org/2000/svg"><g><path d="m339.349 47.916c0 13.02-5.141 25.203-14.472 34.303l-68.877 66.781-68.867-66.771c-9.341-9.11-14.482-21.293-14.482-34.313 0-26.421 21.495-47.916 47.919-47.916 13.531 0 26.402 5.769 35.43 15.674 9.028-9.905 21.899-15.674 35.43-15.674 26.424 0 47.919 21.495 47.919 47.916z" fill="#ff3f5c"/><path d="m339.349 47.916c0 13.02-5.141 25.203-14.472 34.303l-68.877 66.781v-133.326c9.028-9.905 21.899-15.674 35.43-15.674 26.424 0 47.919 21.495 47.919 47.916z" fill="#dd0056"/><path d="m61.52 242.76h388.96v269.24h-388.96z" fill="#84caff"/><path d="m256 242.76h194.48v269.24h-194.48z" fill="#9aa3e5"/><path d="m257.232 121.79 217.738 129.31h-437.94v-129.31h80.426l51.436 9 54.113-9z" fill="#873a62"/><path d="m474.97 121.79v129.31h-218.97v-129.31h32.988l51.039 10 54.606-10z" fill="#66335b"/><g><path d="m117.374 340.999 52.854-26.546 52.855 26.546v-219.209h-105.709z" fill="#ff7c45"/><path d="m288.918 121.79v219.209l52.854-26.546 52.854 26.546v-219.209z" fill="#ff3f5c"/></g></g></svg>