<svg id="Capa_1" enable-background="new 0 0 512.5 512.5" height="512" viewBox="0 0 512.5 512.5" width="512" xmlns="http://www.w3.org/2000/svg"><g><g><path d="m196.25 109.75v90h-186.25v-45c0-24.85 20.15-45 45-45z" fill="#fff7bf"/><path d="m502.5 154.75v45h-186.25v-90h141.25c24.85 0 45 20.15 45 45z" fill="#fff7bf"/><path d="m476.25 199.75v100h-190v-70l30 10v-40z" fill="#fff9cc"/><path d="m286.25 229.75v263h-60v-263l30-10z" fill="#7dd9c2"/><path d="m476.25 359.75v99.83c0 18.32-14.85 33.17-33.17 33.17h-156.83v-133l120.667-10z" fill="#fff9cc"/><path d="m286.25 299.75h190v60h-190z" fill="#7dd9c2"/><path d="m226.25 229.75v70h-190v-100h160v40z" fill="#fff9cc"/><path d="m36.25 299.75h190v60h-190z" fill="#7dd9c2"/><path d="m226.25 359.75v133h-156.83c-18.32 0-33.17-14.85-33.17-33.17v-99.83z" fill="#fff9cc"/><g><path d="m316.25 109.75v130l-60-20-60 20v-130z" fill="#7dd9c2"/></g><path d="m296.25 79.75v30h-80v-30c0-22.09 17.91-40 40-40 11.04 0 21.04 4.48 28.28 11.72s11.72 17.24 11.72 28.28z" fill="#beece1"/><path d="m385.64 26.64c-21.47 10.73-36.21 32.93-36.21 58.56v24.55h-53.18v-24.55c0-36.14 29.31-65.45 65.45-65.45 8.8 0 17.01 2.53 23.94 6.89z" fill="#7dd9c2"/><path d="m406.7 64.75c0 12.43-5.04 23.68-13.18 31.82s-19.39 13.18-31.82 13.18h-12.27v-24.55c0-25.63 14.74-47.83 36.21-58.56 2.86 1.8 5.5 3.91 7.88 6.29 8.14 8.14 13.18 19.39 13.18 31.82z" fill="#beece1"/><path d="m216.25 85.2v24.55h-53.18v-24.55c0-25.63-14.74-47.83-36.21-58.56 6.93-4.36 15.14-6.89 23.94-6.89 36.14 0 65.45 29.31 65.45 65.45z" fill="#7dd9c2"/><path d="m163.07 85.2v24.55h-12.27c-12.43 0-23.68-5.04-31.82-13.18s-13.18-19.39-13.18-31.82 5.04-23.68 13.18-31.82c2.38-2.38 5.02-4.49 7.88-6.29 21.47 10.73 36.21 32.93 36.21 58.56z" fill="#beece1"/></g><g><path d="m457.5 99.75h-53.369c8.141-9.832 12.574-22.075 12.574-35 0-14.69-5.721-28.501-16.11-38.891-2.784-2.784-5.877-5.259-9.182-7.382-.052-.037-.105-.07-.158-.105-.099-.063-.194-.133-.293-.196-8.759-5.512-18.876-8.426-29.258-8.426-28.461 0-53.285 15.844-66.134 39.17-9.162-11.66-23.376-19.17-39.32-19.17s-30.159 7.511-39.32 19.17c-12.85-23.326-37.674-39.17-66.135-39.17-10.381 0-20.499 2.914-29.253 8.422-3.482 2.189-6.725 4.775-9.637 7.687-10.389 10.389-16.11 24.201-16.11 38.891 0 12.925 4.433 25.168 12.574 35h-53.369c-30.327 0-55 24.673-55 55v45c0 5.523 4.477 10 10 10h16.25v249.83c0 23.804 19.366 43.17 43.17 43.17h373.66c23.804 0 43.17-19.366 43.17-43.17v-249.83h16.25c5.523 0 10-4.477 10-10v-45c0-30.327-24.673-55-55-55zm-71.048-10.252c-6.611 6.611-15.399 10.252-24.748 10.252h-2.273v-14.545c0-19.131 9.622-36.514 25.466-46.66.532.471 1.052.955 1.555 1.458 6.611 6.611 10.252 15.4 10.252 24.748s-3.641 18.136-10.252 24.747zm-24.747-59.748c.629 0 1.255.032 1.88.066-15.234 14.043-24.153 33.905-24.153 55.389v14.545h-33.182v-14.545c0-30.578 24.877-55.455 55.455-55.455zm-55.455 196.126-16.998-5.666c-.013-.004-.027-.009-.04-.013l-29.8-9.933c-2.053-.685-4.271-.685-6.324 0l-29.8 9.933c-.013.004-.027.009-.04.013l-16.998 5.666v-106.126h100zm-30 256.874h-40v-245.792l20-6.667 20 6.667zm-230-173h170v40h-170zm180-230c0-16.542 13.458-30 30-30s30 13.458 30 30v5.455 14.545h-60v-14.545zm-20 5.455v14.545h-33.182v-14.545c0-21.483-8.919-41.345-24.153-55.389.625-.033 1.251-.066 1.88-.066 30.578 0 55.455 24.877 55.455 55.455zm-80.202 4.293c-6.611-6.611-10.252-15.4-10.252-24.748s3.641-18.137 10.252-24.748c.483-.484.983-.951 1.494-1.406.02-.018.042-.035.062-.053 15.844 10.146 25.465 27.531 25.465 46.661v14.546h-2.273c-9.349 0-18.137-3.641-24.748-10.252zm-106.048 65.252c0-19.299 15.701-35 35-35h131.25v70h-150-16.25zm166.25 55v30c0 3.214 1.545 6.233 4.153 8.112s5.959 2.391 9.009 1.375l16.838-5.613v46.126h-170v-80zm-140 249.83v-89.83h170v113h-146.83c-12.776 0-23.17-10.394-23.17-23.17zm396.83 23.17h-146.83v-112.92h56.333c5.523 0 10-4.477 10-10s-4.477-10-10-10h-56.333v-40.08h170v40.08h-33.667c-5.523 0-10 4.477-10 10s4.477 10 10 10h33.667v89.75c0 12.776-10.394 23.17-23.17 23.17zm23.17-193h-170v-46.126l16.838 5.613c1.033.344 2.1.513 3.161.513 2.073 0 4.124-.645 5.848-1.888 2.607-1.879 4.153-4.898 4.153-8.112v-30h140zm26.25-100h-16.25-150v-70h131.25c19.299 0 35 15.701 35 35z"/><circle cx="392.576" cy="359.834" r="9.996"/></g></g></svg>